<svg xmlns="http://www.w3.org/2000/svg" width="16" height="16" viewBox="0 0 16 16">
  <path id="Subtraction_2" data-name="Subtraction 2" d="M-440-2526a7.949,7.949,0,0,1-5.657-2.343A7.948,7.948,0,0,1-448-2534a7.946,7.946,0,0,1,2.343-5.656A7.948,7.948,0,0,1-440-2542a7.947,7.947,0,0,1,5.656,2.343A7.947,7.947,0,0,1-432-2534a7.948,7.948,0,0,1-2.343,5.657A7.948,7.948,0,0,1-440-2526Zm0-7.057h0l2.195,2.195.943-.942-2.2-2.2,2.2-2.2-.943-.943-2.2,2.2-2.195-2.2-.943.943,2.2,2.2-2.2,2.2.943.942,2.194-2.195Z" transform="translate(448 2542)" fill="#fff"/>
</svg>
