<svg xmlns="http://www.w3.org/2000/svg" xmlns:xlink="http://www.w3.org/1999/xlink" width="42" height="42" viewBox="0 0 42 42">
  <defs>
    <filter id="Subtraction_1" x="0" y="0" width="42" height="42" filterUnits="userSpaceOnUse">
      <feOffset dy="4" input="SourceAlpha"/>
      <feGaussianBlur stdDeviation="3" result="blur"/>
      <feFlood flood-opacity="0.161"/>
      <feComposite operator="in" in2="blur"/>
      <feComposite in="SourceGraphic"/>
    </filter>
  </defs>
  <g id="pause-circle" transform="translate(26 25)">
    <g transform="matrix(1, 0, 0, 1, -26, -25)" filter="url(#Subtraction_1)">
      <path id="Subtraction_1-2" data-name="Subtraction 1" d="M-554-2297a11.921,11.921,0,0,1-8.485-3.515A11.921,11.921,0,0,1-566-2309a11.923,11.923,0,0,1,3.515-8.486A11.921,11.921,0,0,1-554-2321a11.923,11.923,0,0,1,8.486,3.515A11.923,11.923,0,0,1-542-2309a11.921,11.921,0,0,1-3.515,8.485A11.923,11.923,0,0,1-554-2297Zm2.4-16.1a.5.5,0,0,0-.5.5v7.2a.5.5,0,0,0,.5.5.5.5,0,0,0,.5-.5v-7.2A.5.5,0,0,0-551.6-2313.1Zm-4.8,0a.5.5,0,0,0-.5.5v7.2a.5.5,0,0,0,.5.5.5.5,0,0,0,.5-.5v-7.2A.5.5,0,0,0-556.4-2313.1Z" transform="translate(575 2326)" fill="#ebebeb"/>
    </g>
  </g>
</svg>
