<svg xmlns="http://www.w3.org/2000/svg" width="24" height="24" viewBox="0 0 24 24">
  <g id="Group_13" data-name="Group 13" transform="translate(-1464 -95)">
    <rect id="Rectangle_102" data-name="Rectangle 102" width="24" height="24" transform="translate(1464 95)" fill="none"/>
    <path id="Path_26" data-name="Path 26" d="M7.334,3.819a3.833,3.833,0,0,0,2.181-.9,3.833,3.833,0,0,1,4.97,0,3.833,3.833,0,0,0,2.181.9,3.833,3.833,0,0,1,3.515,3.515,3.827,3.827,0,0,0,.9,2.181,3.833,3.833,0,0,1,0,4.97,3.833,3.833,0,0,0-.9,2.181,3.833,3.833,0,0,1-3.515,3.515,3.833,3.833,0,0,0-2.181.9,3.833,3.833,0,0,1-4.97,0,3.833,3.833,0,0,0-2.181-.9,3.833,3.833,0,0,1-3.515-3.515,3.833,3.833,0,0,0-.9-2.181,3.833,3.833,0,0,1,0-4.97,3.833,3.833,0,0,0,.9-2.181A3.833,3.833,0,0,1,7.334,3.819Zm9.3,6.565a1.25,1.25,0,1,0-1.768-1.768L10.75,12.733,9.134,11.116a1.25,1.25,0,1,0-1.768,1.768l2.5,2.5a1.25,1.25,0,0,0,1.768,0l5-5Z" transform="translate(1464 95)" fill="#4c99ff" fill-rule="evenodd"/>
  </g>
</svg>
